<?xml version="1.0" standalone="no"?><!DOCTYPE svg PUBLIC "-//W3C//DTD SVG 1.1//EN" "http://www.w3.org/Graphics/SVG/1.1/DTD/svg11.dtd"><svg t="1552987527006" class="icon" style="" viewBox="0 0 1024 1024" version="1.1" xmlns="http://www.w3.org/2000/svg" p-id="21654" xmlns:xlink="http://www.w3.org/1999/xlink" width="128" height="128"><defs><style type="text/css"></style></defs><path d="M83.904 719.488h189.12a20.48 20.48 0 0 1 20.416 20.544v173.888a20.224 20.224 0 0 1-20.416 20.16H83.904A19.84 19.84 0 0 1 64 913.92V740.096c0-11.328 8.64-20.608 19.904-20.608m499.264-464.896A771.584 771.584 0 0 1 420.544 385.92 780.16 780.16 0 0 1 135.68 488.832a32.64 32.64 0 0 1-37.76-28.288 32.384 32.384 0 0 1 27.968-37.824 716.864 716.864 0 0 0 259.84-94.272 717.568 717.568 0 0 0 160.704-133.12H404.864a33.6 33.6 0 1 1 0-67.328H616.96c18.624 0 33.6 15.168 33.6 33.408v212.16a33.664 33.664 0 1 1-67.328 0V254.592z m164.864 7.36h189.248a19.84 19.84 0 0 1 20.352 19.84v632.192a20.032 20.032 0 0 1-20.352 20.16h-189.184a20.288 20.288 0 0 1-20.48-20.16V281.728a20.032 20.032 0 0 1 20.416-19.776m169.024 40.192h-148.864v591.232h148.864V302.144zM415.872 490.496h189.632c11.136 0 20.16 9.28 20.16 20.288v403.136a20.224 20.224 0 0 1-20.16 20.16H415.872a20.288 20.288 0 0 1-20.16-20.16V510.784a20.48 20.48 0 0 1 20.16-20.288m169.664 41.216H435.84v361.664h149.76V531.712z m-332.224 228.352H104.064v133.312h149.248v-133.312z" p-id="21655" fill="#e6e6e6"></path></svg>