<?xml version="1.0" standalone="no"?><!DOCTYPE svg PUBLIC "-//W3C//DTD SVG 1.1//EN" "http://www.w3.org/Graphics/SVG/1.1/DTD/svg11.dtd"><svg t="1552844266696" class="icon" style="" viewBox="0 0 1024 1024" version="1.1" xmlns="http://www.w3.org/2000/svg" p-id="28692" xmlns:xlink="http://www.w3.org/1999/xlink" width="300" height="300"><defs><style type="text/css"></style></defs><path d="M511.001949 0C228.783158 0 0 228.783158 0 511.001949s228.783158 511.001949 511.001949 511.001949 511.001949-228.783158 511.001949-511.001949S793.220741 0 511.001949 0zM511.001949 926.191033c-229.302144 0-415.189084-185.88694-415.189084-415.189084S281.699805 95.812865 511.001949 95.812865s415.189084 185.88694 415.189084 415.189084S740.304094 926.191033 511.001949 926.191033z" p-id="28693"></path><path d="M628.262924 439.1423 255.500975 439.1423c-35.277099 0-63.875244 28.598144-63.875244 63.875244s28.598144 63.875244 63.875244 63.875244l372.761949 0" p-id="28694"></path><path d="M397.224172 566.892788l372.761949 0c35.277099 0 63.875244-28.598144 63.875244-63.875244s-28.598144-63.875244-63.875244-63.875244L397.224172 439.1423" p-id="28695"></path></svg>