<?xml version="1.0" standalone="no"?><!DOCTYPE svg PUBLIC "-//W3C//DTD SVG 1.1//EN" "http://www.w3.org/Graphics/SVG/1.1/DTD/svg11.dtd"><svg t="1551884372574" class="icon" style="" viewBox="0 0 1024 1024" version="1.1" xmlns="http://www.w3.org/2000/svg" p-id="2383" xmlns:xlink="http://www.w3.org/1999/xlink" width="200" height="200"><defs><style type="text/css"></style></defs><path d="M518.4 996.266667a469.333333 469.333333 0 1 1 469.333333-469.333334 469.333333 469.333333 0 0 1-469.333333 469.333334z m0-853.333334a384 384 0 1 0 384 384 384 384 0 0 0-384-384z" p-id="2384"></path><path d="M518.4 633.6a106.666667 106.666667 0 0 1-75.093333-182.186667c34.56-34.986667 204.373333-101.973333 238.08-115.2a21.333333 21.333333 0 0 1 27.733333 27.733334c-13.226667 33.706667-80.213333 203.52-115.2 238.08a106.666667 106.666667 0 0 1-75.52 31.573333z m132.693333-239.36a974.506667 974.506667 0 0 0-177.92 85.333333 64.426667 64.426667 0 0 0 0 90.88 66.56 66.56 0 0 0 90.88 0 974.506667 974.506667 0 0 0 87.04-176.213333zM177.066667 569.6h-85.333334a42.666667 42.666667 0 0 1 0-85.333333h85.333334a42.666667 42.666667 0 0 1 0 85.333333zM518.4 228.266667a42.666667 42.666667 0 0 1-42.666667-42.666667v-85.333333a42.666667 42.666667 0 1 1 85.333334 0v85.333333a42.666667 42.666667 0 0 1-42.666667 42.666667zM945.066667 569.6h-85.333334a42.666667 42.666667 0 0 1 0-85.333333h85.333334a42.666667 42.666667 0 0 1 0 85.333333z" p-id="2385"></path></svg>