<?xml version="1.0" standalone="no"?><!DOCTYPE svg PUBLIC "-//W3C//DTD SVG 1.1//EN" "http://www.w3.org/Graphics/SVG/1.1/DTD/svg11.dtd"><svg t="1552986669009" class="icon" style="" viewBox="0 0 1047 1024" version="1.1" xmlns="http://www.w3.org/2000/svg" p-id="1969" xmlns:xlink="http://www.w3.org/1999/xlink" width="204.4921875" height="200"><defs><style type="text/css"></style></defs><path d="M1001.73913 578.782609 667.826087 578.782609C643.227826 578.782609 623.304348 558.83687 623.304348 534.26087L623.304348 44.521739C623.304348 19.923478 643.227826 0 667.826087 0L1001.73913 0C1026.337391 0 1046.26087 19.923478 1046.26087 44.521739L1046.26087 534.26087C1046.26087 558.83687 1026.337391 578.782609 1001.73913 578.782609ZM957.217391 133.565217C957.217391 108.966957 937.293913 89.043478 912.695652 89.043478L756.869565 89.043478C732.271304 89.043478 712.347826 108.966957 712.347826 133.565217L712.347826 445.217391C712.347826 469.815652 732.271304 489.73913 756.869565 489.73913L912.695652 489.73913C937.293913 489.73913 957.217391 469.815652 957.217391 445.217391L957.217391 133.565217ZM534.26087 556.521739 512 556.521739C487.401739 556.521739 467.478261 536.598261 467.478261 512 467.478261 487.401739 487.401739 467.478261 512 467.478261L534.26087 467.478261C558.85913 467.478261 578.782609 487.401739 578.782609 512 578.782609 536.598261 558.85913 556.521739 534.26087 556.521739ZM534.26087 422.956522 44.521739 422.956522C19.923478 422.956522 0 403.010783 0 378.434783L0 44.521739C0 19.923478 19.923478 0 44.521739 0L534.26087 0C558.85913 0 578.782609 19.923478 578.782609 44.521739L578.782609 378.434783C578.782609 403.010783 558.85913 422.956522 534.26087 422.956522ZM489.73913 133.565217C489.73913 108.966957 469.815652 89.043478 445.217391 89.043478L133.565217 89.043478C108.966957 89.043478 89.043478 108.966957 89.043478 133.565217L89.043478 289.391304C89.043478 313.989565 108.966957 333.913043 133.565217 333.913043L445.217391 333.913043C469.815652 333.913043 489.73913 313.989565 489.73913 289.391304L489.73913 133.565217ZM44.521739 445.217391 378.434783 445.217391C403.033043 445.217391 422.956522 465.14087 422.956522 489.73913L422.956522 979.478261C422.956522 1004.054261 403.033043 1024 378.434783 1024L44.521739 1024C19.923478 1024 0 1004.054261 0 979.478261L0 489.73913C0 465.14087 19.923478 445.217391 44.521739 445.217391ZM89.043478 890.434783C89.043478 915.010783 108.966957 934.956522 133.565217 934.956522L289.391304 934.956522C313.989565 934.956522 333.913043 915.010783 333.913043 890.434783L333.913043 578.782609C333.913043 554.184348 313.989565 534.26087 289.391304 534.26087L133.565217 534.26087C108.966957 534.26087 89.043478 554.184348 89.043478 578.782609L89.043478 890.434783ZM489.73913 601.043478 979.478261 601.043478C1004.076522 601.043478 1024 620.966957 1024 645.565217L1024 979.478261C1024 1004.054261 1004.076522 1024 979.478261 1024L489.73913 1024C465.14087 1024 445.217391 1004.054261 445.217391 979.478261L445.217391 645.565217C445.217391 620.966957 465.14087 601.043478 489.73913 601.043478ZM534.26087 890.434783C534.26087 915.010783 554.184348 934.956522 578.782609 934.956522L890.434783 934.956522C915.033043 934.956522 934.956522 915.010783 934.956522 890.434783L934.956522 734.608696C934.956522 710.010435 915.033043 690.086957 890.434783 690.086957L578.782609 690.086957C554.184348 690.086957 534.26087 710.010435 534.26087 734.608696L534.26087 890.434783Z" p-id="1970" fill="#ffffff"></path></svg>