<?xml version="1.0" standalone="no"?><!DOCTYPE svg PUBLIC "-//W3C//DTD SVG 1.1//EN" "http://www.w3.org/Graphics/SVG/1.1/DTD/svg11.dtd"><svg t="1552989636712" class="icon" style="" viewBox="0 0 1024 1024" version="1.1" xmlns="http://www.w3.org/2000/svg" p-id="4641" xmlns:xlink="http://www.w3.org/1999/xlink" width="128" height="128"><defs><style type="text/css"></style></defs><path d="M883.2 89.6c0-38.4-32-64-70.4-64H70.4c-38.4 0-64 32-64 64v204.8h883.2V89.6zM345.6 198.4H128V121.6h224v76.8z m230.4 0c-12.8 0-25.6-6.4-32-19.2-6.4-12.8-6.4-25.6 0-38.4 0-12.8 19.2-19.2 32-19.2 19.2 0 38.4 19.2 38.4 38.4s-12.8 38.4-38.4 38.4z m128 0c-19.2 0-38.4-19.2-38.4-38.4s19.2-38.4 38.4-38.4 38.4 19.2 38.4 38.4-19.2 38.4-38.4 38.4z m-358.4 640v38.4H128v-76.8h198.4c-12.8-32-19.2-64-25.6-96H0v224c0 25.6 19.2 44.8 44.8 44.8h422.4c-51.2-32-89.6-76.8-121.6-134.4zM320 544H128V467.2h224v19.2c19.2-44.8 51.2-83.2 96-115.2H0V640h300.8L320 544z m0 0M806.4 601.6H569.6c-6.4 0-12.8 6.4-12.8 12.8s6.4 12.8 12.8 12.8h236.8c6.4 0 12.8-6.4 12.8-12.8s-6.4-12.8-12.8-12.8z m0 0" fill="#1296db" p-id="4642"></path><path d="M691.2 326.4c-185.6 0-332.8 147.2-332.8 332.8 0 185.6 147.2 332.8 332.8 332.8 185.6 0 332.8-147.2 332.8-332.8 0-179.2-147.2-332.8-332.8-332.8z m147.2 492.8H537.6s-25.6 6.4-25.6-25.6v-256s0-25.6 32-25.6h108.8s12.8 0 25.6 12.8c12.8 19.2 19.2 25.6 19.2 25.6s6.4 6.4 12.8 6.4h134.4s25.6 0 25.6 25.6v224c-6.4-12.8-6.4 12.8-32 12.8z m0 0" fill="#1296db" p-id="4643"></path></svg>