<?xml version="1.0" standalone="no"?><!DOCTYPE svg PUBLIC "-//W3C//DTD SVG 1.1//EN" "http://www.w3.org/Graphics/SVG/1.1/DTD/svg11.dtd"><svg t="1552989773185" class="icon" style="" viewBox="0 0 1024 1024" version="1.1" xmlns="http://www.w3.org/2000/svg" p-id="5474" xmlns:xlink="http://www.w3.org/1999/xlink" width="128" height="128"><defs><style type="text/css"></style></defs><path d="M810.54 752.013H215.279c-32.751 0-59.498 26.655-59.498 59.444 0 32.971 26.755 59.553 59.498 59.553h595.26c32.855 0 59.552-26.59 59.552-59.553 0-32.742-26.753-59.444-59.551-59.444z m-29.773 89.221c-16.43 0-29.724-13.24-29.724-29.778 0-16.378 13.287-29.72 29.724-29.72 16.48 0 29.773 13.348 29.773 29.72 0 16.538-13.35 29.778-29.773 29.778z m37.846-163.987c14.176 0 27.633 2.966 40.212 7.364l-91.643-526.969H258.725l-91.694 526.97c12.638-4.393 26.095-7.365 40.212-7.365H818.613z m-397.48-275.245c0-50.603 41.156-91.641 91.75-91.641 50.595 0 91.689 41.095 91.689 91.64 33.842 0 61.149 27.409 61.149 61.206 0 33.831-27.3 61.256-61.15 61.256H421.135c-33.68 0-61.097-27.416-61.097-61.256 0-33.797 27.416-61.205 61.096-61.205zM833.229 945.68H192.584c-70.706 0-128.116-57.356-128.116-128.115 0-13.903 2.75-27.028 6.867-39.613L180.07 153.023c5.045-39.775 38.123-70.479 78.778-72.13h508.188c40.045 1.545 72.518 31.366 78.399 70.214L954.49 777.85c4.057 12.578 6.869 25.71 6.869 39.662 0 70.812-57.41 128.168-128.112 128.168h-0.018z m0 0" fill="#1296db" p-id="5475"></path></svg>