<?xml version="1.0" standalone="no"?><!DOCTYPE svg PUBLIC "-//W3C//DTD SVG 1.1//EN" "http://www.w3.org/Graphics/SVG/1.1/DTD/svg11.dtd"><svg t="1552961595063" class="icon" style="" viewBox="0 0 1024 1024" version="1.1" xmlns="http://www.w3.org/2000/svg" p-id="2816" xmlns:xlink="http://www.w3.org/1999/xlink" width="200" height="200"><defs><style type="text/css"></style></defs><path d="M512 912.08a16 16 0 0 1-8-2.15l-332.62-192a16 16 0 0 1-8-13.86V320a16 16 0 0 1 24-13.86l332.62 192a16 16 0 0 1 8 13.86v384.08a16 16 0 0 1-16 16zM195.38 694.8L496 868.36V521.24L195.39 347.67z" fill="#333333" p-id="2817"></path><path d="M512 528a16 16 0 0 1-8-2.14l-332.61-192a16 16 0 0 1 0-27.71L504 114.07a16 16 0 0 1 16 0l332.61 192a16 16 0 0 1 0 27.72L520 525.86a15.94 15.94 0 0 1-8 2.14zM211.39 320L512 493.52 812.62 320 512 146.4z" fill="#333333" p-id="2818"></path><path d="M512 912.08a16 16 0 0 1-16-16V512a16 16 0 0 1 8-13.86l332.62-192a16 16 0 0 1 24 13.86v384a16 16 0 0 1-8 13.86L520 909.93a16 16 0 0 1-8 2.15z m16-390.84v347.12l300.62-173.55V347.68z" fill="#E72418" p-id="2819"></path></svg>