<?xml version="1.0" standalone="no"?><!DOCTYPE svg PUBLIC "-//W3C//DTD SVG 1.1//EN" "http://www.w3.org/Graphics/SVG/1.1/DTD/svg11.dtd"><svg t="1552840513200" class="icon" style="" viewBox="0 0 1024 1024" version="1.1" xmlns="http://www.w3.org/2000/svg" p-id="12655" xmlns:xlink="http://www.w3.org/1999/xlink" width="300" height="300"><defs><style type="text/css"></style></defs><path d="M146.285714 749.714286l0 109.714286q0 7.460571-5.412571 12.873143t-12.873143 5.412571l-109.714286 0q-7.460571 0-12.873143-5.412571t-5.412571-12.873143l0-109.714286q0-7.460571 5.412571-12.873143t12.873143-5.412571l109.714286 0q7.460571 0 12.873143 5.412571t5.412571 12.873143zM146.285714 530.285714l0 109.714286q0 7.460571-5.412571 12.873143t-12.873143 5.412571l-109.714286 0q-7.460571 0-12.873143-5.412571t-5.412571-12.873143l0-109.714286q0-7.460571 5.412571-12.873143t12.873143-5.412571l109.714286 0q7.460571 0 12.873143 5.412571t5.412571 12.873143zM146.285714 310.857143l0 109.714286q0 7.460571-5.412571 12.873143t-12.873143 5.412571l-109.714286 0q-7.460571 0-12.873143-5.412571t-5.412571-12.873143l0-109.714286q0-7.460571 5.412571-12.873143t12.873143-5.412571l109.714286 0q7.460571 0 12.873143 5.412571t5.412571 12.873143zM1024 749.714286l0 109.714286q0 7.460571-5.412571 12.873143t-12.873143 5.412571l-768 0q-7.460571 0-12.873143-5.412571t-5.412571-12.873143l0-109.714286q0-7.460571 5.412571-12.873143t12.873143-5.412571l768 0q7.460571 0 12.873143 5.412571t5.412571 12.873143zM146.285714 91.428571l0 109.714286q0 7.460571-5.412571 12.873143t-12.873143 5.412571l-109.714286 0q-7.460571 0-12.873143-5.412571t-5.412571-12.873143l0-109.714286q0-7.460571 5.412571-12.873143t12.873143-5.412571l109.714286 0q7.460571 0 12.873143 5.412571t5.412571 12.873143zM1024 530.285714l0 109.714286q0 7.460571-5.412571 12.873143t-12.873143 5.412571l-768 0q-7.460571 0-12.873143-5.412571t-5.412571-12.873143l0-109.714286q0-7.460571 5.412571-12.873143t12.873143-5.412571l768 0q7.460571 0 12.873143 5.412571t5.412571 12.873143zM1024 310.857143l0 109.714286q0 7.460571-5.412571 12.873143t-12.873143 5.412571l-768 0q-7.460571 0-12.873143-5.412571t-5.412571-12.873143l0-109.714286q0-7.460571 5.412571-12.873143t12.873143-5.412571l768 0q7.460571 0 12.873143 5.412571t5.412571 12.873143zM1024 91.428571l0 109.714286q0 7.460571-5.412571 12.873143t-12.873143 5.412571l-768 0q-7.460571 0-12.873143-5.412571t-5.412571-12.873143l0-109.714286q0-7.460571 5.412571-12.873143t12.873143-5.412571l768 0q7.460571 0 12.873143 5.412571t5.412571 12.873143z" p-id="12656"></path></svg>