<?xml version="1.0" standalone="no"?><!DOCTYPE svg PUBLIC "-//W3C//DTD SVG 1.1//EN" "http://www.w3.org/Graphics/SVG/1.1/DTD/svg11.dtd"><svg t="1552961333436" class="icon" style="" viewBox="0 0 1024 1024" version="1.1" xmlns="http://www.w3.org/2000/svg" p-id="1981" xmlns:xlink="http://www.w3.org/1999/xlink" width="200" height="200"><defs><style type="text/css"></style></defs><path d="M512 0C229.696 0 0 229.696 0 512s229.696 512 512 512 512-229.696 512-512S794.304 0 512 0zM512 959.936c-247.04 0-447.936-200.96-447.936-447.936S264.96 64.064 512 64.064 959.936 264.96 959.936 512 759.04 959.936 512 959.936z" p-id="1982" fill="#1296db"></path><path d="M512 512m-274.304 0a4.286 4.286 0 1 0 548.608 0 4.286 4.286 0 1 0-548.608 0Z" p-id="1983" fill="#1296db"></path></svg>