<?xml version="1.0" standalone="no"?><!DOCTYPE svg PUBLIC "-//W3C//DTD SVG 1.1//EN" "http://www.w3.org/Graphics/SVG/1.1/DTD/svg11.dtd"><svg t="1552989054533" class="icon" style="" viewBox="0 0 1024 1024" version="1.1" xmlns="http://www.w3.org/2000/svg" p-id="1868" xmlns:xlink="http://www.w3.org/1999/xlink" width="128" height="128"><defs><style type="text/css"></style></defs><path d="M817.664 980.48c-105.984 0-193.536-80.384-204.8-183.296H411.136c-11.264 102.912-98.816 183.296-204.8 183.296-113.664 0-206.336-92.16-206.336-206.336s92.672-206.336 206.336-206.336c4.608 0 8.704 0.512 13.312 0.512l135.68-210.944c-32.256-37.376-49.664-84.48-49.664-133.632 0-113.664 92.672-206.336 206.336-206.336s206.336 92.672 206.336 206.336c0 50.688-18.432 98.304-52.224 136.192l134.144 208.384c5.632-0.512 11.264-1.024 16.896-1.024 113.664 0 206.336 92.672 206.336 206.336s-92.16 206.848-205.824 206.848z m-451.072-228.864h290.304v23.04c0 88.576 72.192 160.256 160.256 160.256s160.256-72.192 160.256-160.256-72.192-160.256-160.256-160.256c-7.68 0-15.872 1.024-24.576 2.56l-14.848 2.56-170.496-264.704 13.824-13.312c32.768-30.72 51.2-72.192 51.2-116.736 0-88.576-72.192-160.256-160.256-160.256S351.744 135.68 351.744 224.256c0 43.52 17.408 84.48 48.64 114.688l13.312 13.312-171.52 266.24-18.432-2.56c-5.632-1.024-11.264-1.536-17.408-1.536C117.76 613.888 46.08 686.08 46.08 774.144s72.192 160.256 160.256 160.256 160.256-72.192 160.256-160.256v-22.528z m294.912-15.36H362.496l-5.632-15.36c-13.312-37.888-40.448-69.12-76.288-88.064l-22.016-11.776 167.936-260.608 17.92 8.192c43.52 20.48 90.112 20.48 132.608 1.536l17.92-8.192 167.424 260.096-21.504 11.776c-34.304 18.944-60.928 49.664-73.728 86.528l-5.632 15.872z m-267.776-46.08H629.76c14.848-33.28 38.4-61.952 68.096-82.944L577.024 419.84c-43.52 14.848-89.6 14.336-133.632-1.536l-120.32 186.88c31.232 21.504 55.296 50.688 70.656 84.992z" p-id="1869" fill="#1296db"></path></svg>