<?xml version="1.0" standalone="no"?><!DOCTYPE svg PUBLIC "-//W3C//DTD SVG 1.1//EN" "http://www.w3.org/Graphics/SVG/1.1/DTD/svg11.dtd"><svg t="1551884124891" class="icon" style="" viewBox="0 0 1024 1024" version="1.1" xmlns="http://www.w3.org/2000/svg" p-id="1485" xmlns:xlink="http://www.w3.org/1999/xlink" width="200" height="200"><defs><style type="text/css"></style></defs><path d="M139.118478 141.526317l595.123162 0 0 47.937802 75.051323 0 0-49.998741c0-40.165792-32.80822-72.822562-73.180719-72.822562l-599.053682 0c-40.362266 0-73.103972 32.656771-73.103972 72.822562l0 571.705823c0 40.241516 32.741705 72.823586 73.103972 72.823586l50.062186 0 0-74.676793-48.00227 0L139.118478 141.526317 139.118478 141.526317zM885.954971 216.315674 286.9852 216.315674c-40.409338 0-73.226768 32.583093-73.226768 72.767304l0 595.506902c0 40.183188 32.778544 72.767304 73.226768 72.767304l598.837764 0c40.373523 0 73.198116-32.584116 73.198116-72.767304L959.02108 289.082978C959.022103 248.89672 926.195463 216.352513 885.954971 216.315674L885.954971 216.315674zM883.896078 291.122427l0 591.554894L288.912086 882.677321 288.912086 291.122427 883.896078 291.122427l0.035816 0L883.896078 291.122427 883.896078 291.122427zM360.613104 465.623763 517.02648 465.623763c3.483334 0 6.310729-2.806929 6.310729-6.255471l0-63.139016 0-0.824785c0-3.446495-2.827395-6.329149-6.216585-6.329149L360.613104 389.075343c-3.499707 0-6.309706 2.883677-6.309706 6.329149l0 63.963801C354.301352 462.816834 357.111351 465.623763 360.613104 465.623763L360.613104 465.623763zM360.613104 625.315812 360.613104 625.315812l353.047802 0c3.464915 0 6.310729-2.807952 6.310729-6.253424L719.971635 555.900859c0.075725-0.319272 0.075725-0.560772 0.075725-0.841158 0-3.462868-2.809999-6.255471-6.216585-6.255471L360.613104 548.804231c-3.501754 0-6.310729 2.791579-6.310729 6.255471l0 64.039525C354.301352 622.471021 357.111351 625.315812 360.613104 625.315812L360.613104 625.315812zM360.613104 784.967952l451.450972 0c3.445472 0 6.290263-2.804882 6.290263-6.27082l0-63.161528c0.057305-0.299829 0.057305-0.560772 0.057305-0.824785 0-3.461845-2.791579-6.290263-6.16235-6.290263l-451.636191 0c-3.501754 0-6.310729 2.828418-6.310729 6.290263l0 64.023152C354.301352 782.162046 357.111351 784.967952 360.613104 784.967952L360.613104 784.967952z" p-id="1486"></path></svg>