<?xml version="1.0" standalone="no"?><!DOCTYPE svg PUBLIC "-//W3C//DTD SVG 1.1//EN" "http://www.w3.org/Graphics/SVG/1.1/DTD/svg11.dtd"><svg t="1552990310053" class="icon" style="" viewBox="0 0 1024 1024" version="1.1" xmlns="http://www.w3.org/2000/svg" p-id="8067" xmlns:xlink="http://www.w3.org/1999/xlink" width="128" height="128"><defs><style type="text/css"></style></defs><path d="M512 580.096c-2.048 0-4.096 0-4.096-2.048l-230.4-113.152c-4.096-2.048-6.144-8.704-4.096-14.848 2.048-4.096 8.704-6.656 14.848-4.096l224.256 111.104 224.256-113.152c4.096-2.048 10.752 0 14.848 4.096 2.048 4.096 0 10.752-4.096 14.848l-230.4 115.2c-1.024 2.048-3.072 2.048-5.12 2.048z" fill="#ED1E79" p-id="8068"></path><path d="M512 866.304c-6.656 0-10.752-4.096-10.752-10.752v-285.696c0-6.656 4.096-10.752 10.752-10.752s10.752 4.096 10.752 10.752v285.696c0 6.144-4.096 10.752-10.752 10.752z" fill="#ED1E79" p-id="8069"></path><path d="M742.4 981.504c-2.048 0-4.096 0-4.096-2.048L512 868.352l-224.256 113.152h-10.752L49.152 870.4c-4.096 0-6.656-4.096-6.656-8.704v-292.352c0-4.096 2.048-8.704 6.656-8.704l224.256-113.152V168.448c0-4.096 2.048-8.704 6.656-8.704l230.4-115.2c2.048-2.048 6.656-2.048 8.704 0L747.52 157.696c4.096 2.048 6.656 6.144 6.656 8.704v281.6l224.256 111.104c4.096 2.048 6.656 6.656 6.656 8.704V860.16c0 4.096-2.048 8.704-6.656 10.752l-230.4 111.104H742.4zM512 844.8c2.048 0 4.096 0 4.096 2.048l223.744 113.152 219.648-104.448v-279.552l-224.256-111.104c-4.096-2.048-6.656-6.656-6.656-8.704v-281.6L512 66.048 294.4 175.104v279.552c0 4.096-2.048 8.704-6.656 8.704l-224.256 113.152v279.552L281.6 960l224.256-113.152c2.048-2.048 4.096-2.048 6.144-2.048z" fill="#108EE9" p-id="8070"></path></svg>