<?xml version="1.0" standalone="no"?><!DOCTYPE svg PUBLIC "-//W3C//DTD SVG 1.1//EN" "http://www.w3.org/Graphics/SVG/1.1/DTD/svg11.dtd"><svg t="1552988605961" class="icon" style="" viewBox="0 0 1024 1024" version="1.1" xmlns="http://www.w3.org/2000/svg" p-id="2409" xmlns:xlink="http://www.w3.org/1999/xlink" width="300" height="300"><defs><style type="text/css"></style></defs><path d="M511.999488 58.18519 62.771151 338.941526c0 64.047712 0 50.284243 0 112.302739l0 393.059074c0 62.018495 50.286304 112.301715 112.30734 112.301715l673.843018 0c62.021037 0 112.306317-50.28322 112.306317-112.301715L961.227826 451.243241c0-62.018495 0-50.886971 0-112.302739L511.999488 58.18519zM118.925333 844.302315 118.925333 433.69661l254.52817 174.97922L121.585014 860.533998C120.022362 855.378581 118.925333 850.0052 118.925333 844.302315zM848.921509 900.453173 175.078491 900.453173c-4.305226 0-8.444669-0.576121-12.475637-1.479701l257.927732-257.944793 91.468902 62.896492 91.468902-62.896492 257.927732 257.944793C857.366178 899.878075 853.225711 900.453173 848.921509 900.453173zM905.074667 844.302315c0 5.702885-1.096006 11.076266-2.659682 16.23066L650.546498 608.67583l254.52817-174.97922L905.074667 844.302315zM511.999488 638.122489 118.925333 367.016955l392.526665-243.399519 393.62267 243.399519L511.999488 638.122489z" p-id="2410"></path></svg>