<?xml version="1.0" standalone="no"?><!DOCTYPE svg PUBLIC "-//W3C//DTD SVG 1.1//EN" "http://www.w3.org/Graphics/SVG/1.1/DTD/svg11.dtd"><svg t="1552961910211" class="icon" style="" viewBox="0 0 1024 1024" version="1.1" xmlns="http://www.w3.org/2000/svg" p-id="540" xmlns:xlink="http://www.w3.org/1999/xlink" width="200" height="200"><defs><style type="text/css"></style></defs><path d="M729.6 486.865455h-43.287273v-69.818182h6.516364a373.992727 373.992727 0 0 0-63.069091-71.214546H430.545455v372.363637h116.363636v-162.909091h139.636364v162.909091H744.727273a366.312727 366.312727 0 0 0-14.661818-231.330909z m-183.156364 0h-46.545454v-69.818182h46.545454z m93.090909 0h-46.545454v-69.818182h46.545454zM418.909091 299.287273h145.221818a370.501818 370.501818 0 0 0-180.130909-46.545455z" fill="#707070" p-id="541"></path><path d="M546.909091 764.741818h-302.545455V314.88l35.141819-46.545455a372.363636 372.363636 0 1 0 449.62909 496.407273H546.909091z" fill="#707070" p-id="542"></path><path d="M337.454545 268.334545l-46.545454 62.138182v387.723637h93.090909V330.472727l-23.272727-31.185454-23.272728-30.952728zM593.454545 601.832727h46.545455v116.363637h-46.545455z" fill="#707070" p-id="543"></path><path d="M925.090909 229.469091l-17.454545-23.272727H325.818182l-17.454546 23.272727L279.272727 267.869091l-35.141818 46.545454v450.327273h744.727273V314.88z m-541.090909 488.727273h-93.090909V330.472727l46.545454-62.138182 23.272728 30.952728 23.272727 30.952727z m256 0h-46.545455v-116.363637h46.545455z m162.909091 0h-116.363636v-162.909091h-139.636364v162.909091h-116.363636v-372.363637h372.363636z m11.636364-418.909091H418.909091l-34.909091-46.545455h465.454545z m128 418.909091h-93.09091V330.472727l23.272728-30.952727 23.272727-30.952727 46.545455 62.138182z" fill="#707070" p-id="544"></path><path d="M499.898182 417.047273h46.545454v69.818182h-46.545454zM593.221818 417.047273h46.545455v69.818182h-46.545455zM686.312727 486.865455h46.545455v-69.818182h-46.545455v69.818182z" fill="#707070" p-id="545"></path></svg>