<?xml version="1.0" standalone="no"?><!DOCTYPE svg PUBLIC "-//W3C//DTD SVG 1.1//EN" "http://www.w3.org/Graphics/SVG/1.1/DTD/svg11.dtd"><svg t="1551884108312" class="icon" style="" viewBox="0 0 1024 1024" version="1.1" xmlns="http://www.w3.org/2000/svg" p-id="1019" xmlns:xlink="http://www.w3.org/1999/xlink" width="200" height="200"><defs><style type="text/css"></style></defs><path d="M819.712 0H204.288C122.88 0 56.32 66.56 56.32 147.968v728.576C56.32 957.44 122.88 1024 204.288 1024h615.424c81.408 0 147.968-66.56 147.968-147.968V147.968C967.68 66.56 901.12 0 819.712 0zM163.328 147.968c0-22.528 18.432-40.96 40.96-40.96h615.424c22.528 0 40.96 18.432 40.96 40.96v728.576c0 22.528-18.432 40.96-40.96 40.96H204.288c-22.528 0-40.96-18.432-40.96-40.96V147.968z" p-id="1020"></path><path d="M315.904 346.624h392.192c29.696 0 53.76-24.064 53.76-53.76s-24.064-53.76-53.76-53.76H315.904c-29.696 0-53.76 24.064-53.76 53.76s24.064 53.76 53.76 53.76zM708.096 433.152l-393.216 7.68c-14.336 0.512-27.648 6.144-37.376 16.384-9.728 10.24-15.36 24.064-14.848 37.888 0.512 29.184 24.576 52.224 53.248 52.224l393.216-7.68c14.336-0.512 27.648-6.144 37.376-16.384 9.728-10.24 15.36-24.064 14.848-37.888 0-28.672-24.064-52.224-53.248-52.224zM315.904 749.056h188.416c29.696 0 53.76-24.064 53.76-53.76s-24.064-53.76-53.76-53.76H315.904c-29.696 0-53.76 24.064-53.76 53.76s24.064 53.76 53.76 53.76z" p-id="1021"></path></svg>