<?xml version="1.0" standalone="no"?><!DOCTYPE svg PUBLIC "-//W3C//DTD SVG 1.1//EN" "http://www.w3.org/Graphics/SVG/1.1/DTD/svg11.dtd"><svg t="1552843883579" class="icon" style="" viewBox="0 0 1026 1024" version="1.1" xmlns="http://www.w3.org/2000/svg" p-id="24092" xmlns:xlink="http://www.w3.org/1999/xlink" width="300.5859375" height="300"><defs><style type="text/css"></style></defs><path d="M698.3 378.9c9-11.9 4.4-30.6-9.9-40.4-13.6-8.1-30.9-3.4-39.9 8.4L439.4 628.4l-112.5-98.5c-12.5-10.7-27.9-11.5-38.4-2-9.9 9.8-9.7 24 0.7 35.2l131.2 121.7c13.4 12.7 37.1 11.3 48-2.6C483.4 662.7 698.3 378.9 698.3 378.9z" p-id="24093" fill="#1296db"></path><path d="M916.48 494.592c0 231.936-187.904 419.84-419.84 419.84s-419.84-187.904-419.84-419.84 187.904-419.84 419.84-419.84S916.48 262.656 916.48 494.592zM497.664 138.24c-190.464 0-358.4 167.424-358.4 357.376 0 197.632 160.256 358.4 358.4 358.4s358.4-160.256 358.4-358.4C855.552 306.688 690.688 138.24 497.664 138.24z" p-id="24094" fill="#1296db"></path></svg>