<?xml version="1.0" standalone="no"?><!DOCTYPE svg PUBLIC "-//W3C//DTD SVG 1.1//EN" "http://www.w3.org/Graphics/SVG/1.1/DTD/svg11.dtd"><svg t="1552989880041" class="icon" style="" viewBox="0 0 1024 1024" version="1.1" xmlns="http://www.w3.org/2000/svg" p-id="6464" xmlns:xlink="http://www.w3.org/1999/xlink" width="128" height="128"><defs><style type="text/css"></style></defs><path d="M948.768 1.536H75.2A73.12 73.12 0 0 0 2.336 74.432v875.2a73.12 73.12 0 0 0 72.896 72.928H948.8a73.12 73.12 0 0 0 72.896-72.928V74.432A73.12 73.12 0 0 0 948.8 1.536zM292.544 74.208h436v327.616c0 20.064-16.384 36.48-36.448 36.48H328.992a36.544 36.544 0 0 1-36.48-36.48V74.24z m656.224 838.72c0 20.096-16.416 36.48-36.48 36.48H111.712a36.544 36.544 0 0 1-36.48-36.48V110.72c0-20.064 16.416-36.48 36.48-36.48h107.904v364.288a73.12 73.12 0 0 0 72.928 72.928h436a73.12 73.12 0 0 0 72.928-72.928V74.24h110.816c20.064 0 36.48 16.416 36.48 36.48v802.24z m-403.2-546.112c20.032 0 36.416-16.384 36.416-36.448V184.544c0-20.064-16.384-36.48-36.448-36.48-20.032 0-36.48 16.416-36.48 36.48v145.824c0 20.064 16.448 36.48 36.48 36.48z" fill="#1296db" p-id="6465"></path></svg>