<?xml version="1.0" standalone="no"?><!DOCTYPE svg PUBLIC "-//W3C//DTD SVG 1.1//EN" "http://www.w3.org/Graphics/SVG/1.1/DTD/svg11.dtd"><svg t="1552984411999" class="icon" style="" viewBox="0 0 1448 1024" version="1.1" xmlns="http://www.w3.org/2000/svg" p-id="8977" xmlns:xlink="http://www.w3.org/1999/xlink" width="181" height="128"><defs><style type="text/css"></style></defs><path d="M970.84764 928.876197c-31.306568 0-56.0766-25.458088-56.0766-56.0766 0-30.790526 25.458088-56.0766 56.0766-56.0766 31.306568 0 56.0766 25.458088 56.0766 56.0766 0.172014 30.790526-24.770032 56.0766-56.0766 56.0766m56.764656-187.839409h-676.015454c-62.441122 0-112.669242 50.22812-112.669242 112.669243v37.499076c0 62.441122 50.22812 112.669242 112.669242 112.669242h676.015454c62.441122 0 112.669242-50.22812 112.669243-112.669242v-37.499076c-0.516042-62.441122-50.744163-112.669242-112.669243-112.669243M961.21485 566.786494c-20.469679 0-40.079288-3.440282-58.484798-9.288762-31.306568 19.437594-67.77356 30.274483-105.960692 30.274484-71.729884 0-135.719133-38.531161-171.326054-98.048043-74.138082-25.458088-128.322526-94.263733-134.171006-176.658492H464.438098c-62.441122 0-93.231648 50.22812-112.669242 112.669243L239.099614 727.791702c31.650596-23.909961 70.353771-38.531161 112.669242-38.531161h676.015454c42.487485 0 81.018646 14.621199 112.669243 38.531161l-65.881405-199.19234c-31.82261 24.081975-70.869814 38.187133-113.357298 38.187132" p-id="8978" fill="#e6e6e6"></path><path d="M796.76936 531.695616c-58.484798 0-110.261045-36.122963-132.278851-89.275324-66.913489-12.213002-118.173694-72.245926-118.173694-143.97581 0-63.473207 40.079288-118.689736 96.67193-138.127331 14.621199-79.470519 83.942886-140.019486 165.477575-140.019486 49.36805 0 95.639845 22.017806 127.462455 59.516882 15.653284-5.84848 31.650596-8.77272 48.335965-8.772719 55.732572 0 105.960692 35.090879 126.946414 85.835041 56.592642 17.029397 96.67193 70.353771 96.67193 132.278851 0 73.278011-55.560558 133.310936-126.430371 138.127331-19.093566 49.36805-65.881404 83.426844-120.581892 83.426843-23.909961 0-46.44381-6.364522-66.397446-18.577524-25.458088 24.942046-60.720981 39.563245-97.704015 39.563246" p-id="8979" fill="#e6e6e6"></path></svg>