<?xml version="1.0" standalone="no"?><!DOCTYPE svg PUBLIC "-//W3C//DTD SVG 1.1//EN" "http://www.w3.org/Graphics/SVG/1.1/DTD/svg11.dtd"><svg t="1552842605150" class="icon" style="" viewBox="0 0 1024 1024" version="1.1" xmlns="http://www.w3.org/2000/svg" p-id="14391" xmlns:xlink="http://www.w3.org/1999/xlink" width="300" height="300"><defs><style type="text/css"></style></defs><path d="M469.34016 42.65984l384 0q53.00224 0 90.50112 37.49888t37.49888 90.50112l0 384q0 53.00224-37.49888 90.50112t-90.50112 37.49888l-170.65984 0 0 170.65984q0 53.00224-37.49888 90.50112t-90.50112 37.49888l-384 0q-53.00224 0-90.50112-37.49888t-37.49888-90.50112l0-384q0-53.00224 37.49888-90.50112t90.50112-37.49888l170.65984 0 0-170.65984q0-53.00224 37.49888-90.50112t90.50112-37.49888zM341.34016 554.65984l0-128-170.65984 0q-17.67424 0-30.16704 12.4928t-12.4928 30.16704l0 384q0 17.67424 12.4928 30.16704t30.16704 12.4928l384 0q17.67424 0 30.16704-12.4928t12.4928-30.16704l0-170.65984-128 0q-53.00224 0-90.50112-37.49888t-37.49888-90.50112zM853.34016 128l-384 0q-17.67424 0-30.16704 12.4928t-12.4928 30.16704l0 384q0 17.67424 12.4928 30.16704t30.16704 12.4928l384 0q17.67424 0 30.16704-12.4928t12.4928-30.16704l0-384q0-17.67424-12.4928-30.16704t-30.16704-12.4928z" p-id="14392" fill="#ffffff"></path></svg>