<?xml version="1.0" standalone="no"?><!DOCTYPE svg PUBLIC "-//W3C//DTD SVG 1.1//EN" "http://www.w3.org/Graphics/SVG/1.1/DTD/svg11.dtd"><svg t="1552988734095" class="icon" style="" viewBox="0 0 1024 1024" version="1.1" xmlns="http://www.w3.org/2000/svg" p-id="2698" xmlns:xlink="http://www.w3.org/1999/xlink" width="300" height="300"><defs><style type="text/css"></style></defs><path d="M424.8 478.4c24.8 23.2 56.8 35.2 89.6 35.2 32 0 64.8-11.2 91.2-34.4l0.8-0.8 368.8-328c7.2-6.4 12-16 12-26.4 0-10.4-4-20-11.2-26.4-24.8-23.2-58.4-36.8-92.8-36.8H148c-36 0-67.2 12.8-92.8 36.8C48 104.8 44 114.4 44 124c0 10.4 4.8 20 12 26.4l368.8 328zM148 132.8h738.4l-328 292c-25.6 21.6-61.6 22.4-84 0.8l-0.8-0.8-328.8-292h3.2z m842.4 88c-12.8-5.6-28-3.2-38.4 5.6l-394.4 352-0.8 0.8c-22.4 20.8-60.8 20.8-83.2 0l-0.8-0.8L72 226.4c-10.4-9.6-25.6-11.2-38.4-5.6-12.8 5.6-20.8 18.4-20.8 32.8v584.8c0 70.4 59.2 127.2 132.8 127.2H880c72.8 0 132.8-56.8 132.8-127.2V253.6c-0.8-14.4-8.8-27.2-22.4-32.8zM940 838.4c0 31.2-26.4 55.2-60.8 55.2H144.8c-34.4 0-60.8-24-60.8-55.2V332.8L424.8 632c49.6 45.6 132 45.6 180.8 0l333.6-297.6v504z" fill="#333333" p-id="2699"></path></svg>