<?xml version="1.0" standalone="no"?><!DOCTYPE svg PUBLIC "-//W3C//DTD SVG 1.1//EN" "http://www.w3.org/Graphics/SVG/1.1/DTD/svg11.dtd"><svg t="1552883169138" class="icon" style="" viewBox="0 0 1025 1024" version="1.1" xmlns="http://www.w3.org/2000/svg" p-id="1650" xmlns:xlink="http://www.w3.org/1999/xlink" width="200.1953125" height="200"><defs><style type="text/css"></style></defs><path d="M192.104577 1023.615791a192.104577 192.104577 0 0 1-192.104577-192.104577V447.878374a64.034859 64.034859 0 0 1 128.069718 0v384.017049a64.034859 64.034859 0 0 0 64.034859 64.034859h640.34859a64.034859 64.034859 0 0 0 64.034859-64.034859V448.262583a64.034859 64.034859 0 0 1 128.069718 0v383.63284a192.104577 192.104577 0 0 1-192.104577 192.104577z m256.139436-383.824945V218.569544L365.44694 301.302582a64.034859 64.034859 0 0 1-90.54529-90.417221l192.104577-192.104577a64.034859 64.034859 0 0 1 90.609325 0l177.184455 176.99235a64.034859 64.034859 0 1 1-90.545291 90.353186L576.313731 218.697614v421.093232a64.034859 64.034859 0 1 1-128.069718 0z" fill="#8a8a8a" p-id="1651"></path></svg>