<?xml version="1.0" standalone="no"?><!DOCTYPE svg PUBLIC "-//W3C//DTD SVG 1.1//EN" "http://www.w3.org/Graphics/SVG/1.1/DTD/svg11.dtd"><svg t="1552842723978" class="icon" style="" viewBox="0 0 1024 1024" version="1.1" xmlns="http://www.w3.org/2000/svg" p-id="14617" xmlns:xlink="http://www.w3.org/1999/xlink" width="300" height="300"><defs><style type="text/css"></style></defs><path d="M215.68 896H313.6a84.48 84.48 0 0 0 81.92 52.48h256a85.12 85.12 0 0 0 83.84-52.48H832a46.08 46.08 0 0 0 48-44.16v-704a46.08 46.08 0 0 0-48-49.92h-96.64a85.12 85.12 0 0 0-81.92-52.48h-256a84.48 84.48 0 0 0-81.92 52.48H215.68a46.08 46.08 0 0 0-47.36 44.16v704a46.08 46.08 0 0 0 47.36 49.92z m179.2-786.56h256a28.8 28.8 0 0 1 14.08 3.2 26.88 26.88 0 0 1 0 7.68v750.72a26.88 26.88 0 0 1 0 7.68 28.8 28.8 0 0 1-14.08 3.2h-256a28.8 28.8 0 0 1-10.88-3.2 26.88 26.88 0 0 1 0-7.68V120.96a26.88 26.88 0 0 1 0-7.68 28.8 28.8 0 0 1 10.88-3.84z m421.76 52.48V832H704V362.88h37.76a16 16 0 0 0 0-32H704v-45.44h37.76a16 16 0 0 0 0-32H704V160.64h5.76z m-584.32 0h115.2V256h-37.76a16 16 0 0 0 0 32h37.76v45.44h-37.76a16 16 0 0 0 0 32h37.76V832h-115.2z" fill="#ffffff" p-id="14618"></path></svg>