<?xml version="1.0" standalone="no"?><!DOCTYPE svg PUBLIC "-//W3C//DTD SVG 1.1//EN" "http://www.w3.org/Graphics/SVG/1.1/DTD/svg11.dtd"><svg t="1552989217226" class="icon" style="" viewBox="0 0 1024 1024" version="1.1" xmlns="http://www.w3.org/2000/svg" p-id="2469" xmlns:xlink="http://www.w3.org/1999/xlink" width="128" height="128"><defs><style type="text/css"></style></defs><path d="M949.69199 163.317384h-89.35794V73.959444A74.426065 74.426065 0 0 0 786.141295 0h-548.27979A74.426065 74.426065 0 0 0 163.43544 73.959444V326.634769H74.077499A74.192755 74.192755 0 0 0 0.118055 401.527455v548.27979a73.959444 73.959444 0 0 0 73.959444 74.192755h548.279791a73.959444 73.959444 0 0 0 73.959444-74.192755v-89.59125H949.69199a74.192755 74.192755 0 0 0 74.192755-74.192755v-548.27979A74.192755 74.192755 0 0 0 949.69199 163.317384zM205.198028 73.959444a32.430166 32.430166 0 0 1 32.663477-32.196856h548.27979a32.196856 32.196856 0 0 1 32.430166 32.196856V163.317384H401.4122a74.192755 74.192755 0 0 0-74.659376 74.426066V326.634769H205.198028z m163.317384 622.472545h286.272044v122.254728H401.4122a32.663477 32.663477 0 0 1-32.430167-32.663477z m0-41.529278V369.097289h253.841878a32.430166 32.430166 0 0 1 32.430166 32.430166v253.375256z m-163.317384-285.805422H326.752824v285.805422h-88.891319a32.663477 32.663477 0 0 1-32.663477-32.663477zM622.35729 326.634769H368.982033v-88.891319A32.430166 32.430166 0 0 1 401.4122 205.313283h417.159261v416.925951a32.663477 32.663477 0 0 1-32.430166 32.663477h-89.824561V401.527455A74.192755 74.192755 0 0 0 622.35729 326.634769z m32.430166 622.239234a32.663477 32.663477 0 0 1-32.430166 32.663477H74.077499a32.663477 32.663477 0 0 1-32.430166-32.663477V401.527455a32.430166 32.430166 0 0 1 32.430166-32.430166H163.43544v253.141945a74.192755 74.192755 0 0 0 74.192754 74.192755H326.752824v89.591251a74.192755 74.192755 0 0 0 73.959444 74.192755h254.075188z m326.634769-163.317384a32.430166 32.430166 0 0 1-32.430167 32.663477H696.316734v-121.788107h89.824561a74.192755 74.192755 0 0 0 74.192755-74.192755V205.313283h89.35794a32.430166 32.430166 0 0 1 32.430166 32.430167z" fill="#1296db" p-id="2470"></path></svg>