<?xml version="1.0" standalone="no"?><!DOCTYPE svg PUBLIC "-//W3C//DTD SVG 1.1//EN" "http://www.w3.org/Graphics/SVG/1.1/DTD/svg11.dtd"><svg t="1553073859895" class="icon" style="" viewBox="0 0 1024 1024" version="1.1" xmlns="http://www.w3.org/2000/svg" p-id="9486" xmlns:xlink="http://www.w3.org/1999/xlink" width="200" height="200"><defs><style type="text/css"></style></defs><path d="M960 981.333333c-12.8 0-21.333333-8.533333-21.333333-21.333333V396.8c0-6.4-2.133333-12.8-8.533334-17.066667l-405.333333-290.133333c-4.266667-4.266667-8.533333-4.266667-12.8-4.266667s-8.533333 0-12.8 4.266667l-405.333333 292.266667c-6.4 2.133333-8.533333 8.533333-8.533334 14.933333V960c0 12.8-8.533333 21.333333-21.333333 21.333333s-21.333333-8.533333-21.333333-21.333333V396.8c0-19.2 8.533333-38.4 25.6-51.2l405.333333-292.266667c10.666667-6.4 25.6-10.666667 38.4-10.666666 12.8 0 27.733333 4.266667 38.4 12.8l405.333333 292.266666c17.066667 12.8 25.6 29.866667 25.6 51.2V960c0 12.8-8.533333 21.333333-21.333333 21.333333zM213.333333 469.333333h85.333334c36.266667 0 64 27.733333 64 64v85.333334c0 36.266667-27.733333 64-64 64h-85.333334c-36.266667 0-64-27.733333-64-64v-85.333334c0-36.266667 27.733333-64 64-64z m-21.333333 149.333334c0 12.8 8.533333 21.333333 21.333333 21.333333h85.333334c12.8 0 21.333333-8.533333 21.333333-21.333333v-85.333334c0-12.8-8.533333-21.333333-21.333333-21.333333h-85.333334c-12.8 0-21.333333 8.533333-21.333333 21.333333v85.333334z m21.333333 149.333333h85.333334c36.266667 0 64 27.733333 64 64v85.333333c0 36.266667-27.733333 64-64 64h-85.333334c-36.266667 0-64-27.733333-64-64v-85.333333c0-36.266667 27.733333-64 64-64z m-21.333333 149.333333c0 12.8 8.533333 21.333333 21.333333 21.333334h85.333334c12.8 0 21.333333-8.533333 21.333333-21.333334v-85.333333c0-12.8-8.533333-21.333333-21.333333-21.333333h-85.333334c-12.8 0-21.333333 8.533333-21.333333 21.333333v85.333333z m341.333333-149.333333h85.333334c36.266667 0 64 27.733333 64 64v85.333333c0 36.266667-27.733333 64-64 64h-85.333334c-36.266667 0-64-27.733333-64-64v-85.333333c0-36.266667 27.733333-64 64-64z m-21.333333 149.333333c0 12.8 8.533333 21.333333 21.333333 21.333334h85.333334c12.8 0 21.333333-8.533333 21.333333-21.333334v-85.333333c0-12.8-8.533333-21.333333-21.333333-21.333333h-85.333334c-12.8 0-21.333333 8.533333-21.333333 21.333333v85.333333z" fill="#666767" p-id="9487"></path></svg>