<?xml version="1.0" standalone="no"?><!DOCTYPE svg PUBLIC "-//W3C//DTD SVG 1.1//EN" "http://www.w3.org/Graphics/SVG/1.1/DTD/svg11.dtd"><svg t="1552989365919" class="icon" style="" viewBox="0 0 1024 1024" version="1.1" xmlns="http://www.w3.org/2000/svg" p-id="3133" xmlns:xlink="http://www.w3.org/1999/xlink" width="128" height="128"><defs><style type="text/css"></style></defs><path d="M559.89558132 317.93016183c37.83490645 0 68.20239717 9.95655433 91.10247212 30.36749071 19.91310867 17.9217978 30.36749071 40.32404505 30.3674907 67.20674174 0 17.9217978-3.98262173 33.35445701-11.94786519 45.80014991a84.79665438 84.79665438 0 0 1-39.32838961 30.36749072c16.42831464 5.47610488 30.86531842 15.43265921 42.81318364 30.86531843a91.26841471 91.26841471 0 0 1 20.41093636 58.24584283c0 31.86097386-11.9478652 57.2501874-34.84794015 77.16329606-23.39790267 19.41528095-56.25453197 29.37183528-98.56988787 29.37183528-42.81318362 0-75.66981293-9.95655433-98.56988788-29.37183528-23.39790267-19.91310867-34.84794017-45.3023222-34.84794016-77.16329606 0-21.90441952 6.47176032-41.31970047 20.41093637-58.24584284 11.9478652-15.43265921 25.88704126-25.38921354 42.81318364-29.86966299-17.9217978-7.96524347-30.86531842-18.4196255-39.32838961-31.36314615-7.96524347-12.44569292-11.9478652-27.87835213-11.9478652-45.80014991 0-26.8826967 9.95655433-49.28494394 30.3674907-67.20674175 22.40224725-20.41093638 52.76973795-30.36749071 91.10247214-30.36749069z m0 46.29797764c-20.90876408 0-37.83490645 5.47610488-50.28059939 16.92614237-10.95220976 9.95655433-16.42831464 21.90441952-16.42831463 36.3414233 0 16.42831464 4.48044944 29.37183528 13.44134834 38.83056189 10.95220976 11.45003748 28.37617983 17.42397007 53.26756568 17.42397009 24.39355811 0 42.3153559-5.9739326 53.26756565-17.42397009 8.96089889-9.45872661 13.44134834-22.40224725 13.44134835-38.83056189 0-14.43700379-5.47610488-26.38486898-16.42831463-36.3414233-12.94352063-11.45003748-29.37183528-16.92614237-50.28059937-16.92614237z m0 152.83310898c-24.89138584 0-43.80883906 5.9739326-56.75235969 17.9217978-12.94352063 11.45003748-18.91745324 26.8826967-18.91745323 45.80014992 0 17.9217978 6.47176032 32.35880159 19.91310866 43.31101134 12.94352063 10.95220976 31.36314615 16.42831464 55.75670426 16.42831465 23.8957304 0 42.81318362-5.9739326 56.75235968-16.92614236 12.44569292-10.95220976 18.91745324-24.89138584 18.91745323-42.81318363 0-18.91745324-6.47176032-34.35011244-18.4196255-45.3023222-13.44134834-12.44569292-32.35880159-18.4196255-57.25018741-18.41962552zM860.04420874 317.93016183c69.69588032 0 109.02426994 32.35880159 117.98516883 97.07640473h-56.75235969c-6.96958803-32.8566293-27.87835213-49.28494394-61.73063685-49.28494394-23.8957304 0-42.81318362 11.45003748-56.75235968 34.84794015-13.93917606 21.90441952-20.41093638 49.28494394-20.41093638 82.14157324v4.48044944h2.48913857c9.95655433-14.9348315 22.40224725-25.38921354 37.33707875-32.35880157 13.93917606-6.96958803 29.86966299-9.95655433 47.79146079-9.95655433 34.84794017 0 62.72629229 10.95220976 83.63505637 33.354457s31.36314615 51.27625481 31.36314615 86.12419497c0 35.84359561-12.44569292 65.21543086-36.34142332 88.11550585-23.8957304 22.90007496-53.76539341 34.84794017-89.11116125 34.84794014-43.80883906 0-77.16329607-15.93048693-100.06337103-47.29363309-22.90007496-30.86531842-33.85228473-73.18067433-33.85228472-127.44389542 0-58.24584284 11.9478652-105.04164817 36.3414233-140.88524379C785.86787899 335.85195962 818.68302262 317.93016183 860.04420874 317.93016183z m-2.48913859 174.23970079c-21.90441952 0-38.83056188 6.47176032-50.77842708 19.91310867-12.44569292 12.94352063-18.4196255 31.36314615-18.4196255 54.26322111 0 22.40224725 6.47176032 40.32404505 19.41528093 53.26756566 12.94352063 12.94352063 29.37183528 19.41528095 49.78277165 19.41528095 20.90876408 0 37.33707875-6.96958803 50.28059939-20.90876409 12.94352063-13.93917606 19.41528095-31.86097386 19.41528093-53.7653934s-6.47176032-39.32838962-18.4196255-52.27191023c-12.94352063-13.44134834-29.86966299-19.91310867-51.27625482-19.91310867zM181.33908852 335.10521805l49.61682908 79.56946336 49.78277165-79.56946336h119.27122375L290.69524358 484.37056173v29.91114863l109.31466942 159.22189801H280.69720361L221.04084891 573.97955072 161.3844942 673.50360837H42.07178481l119.31270939-169.26142363v-19.83013737L62.06786476 335.10521805z" fill="#1296db" p-id="3134"></path></svg>